<svg width="1068" height="307" viewBox="0 0 1068 307" fill="none" xmlns="http://www.w3.org/2000/svg">
<path d="M91.1111 199.056H148.889V249.722C148.889 252.211 148.889 253.456 148.404 254.407C147.978 255.243 147.298 255.923 146.462 256.349C145.511 256.833 144.267 256.833 141.778 256.833H98.2222C95.7331 256.833 94.4885 256.833 93.5378 256.349C92.7015 255.923 92.0216 255.243 91.5955 254.407C91.1111 253.456 91.1111 252.211 91.1111 249.722V199.056Z" fill="white"/>
<path d="M38.8889 71.7222C38.8889 69.2331 38.8889 67.9885 39.3733 67.0378C39.7994 66.2015 40.4793 65.5216 41.3156 65.0955C42.2663 64.6111 43.5109 64.6111 46 64.6111H74.4445V242.389H46C43.5109 242.389 42.2663 242.389 41.3156 241.904C40.4793 241.478 39.7994 240.798 39.3733 239.962C38.8889 239.011 38.8889 237.767 38.8889 235.278V71.7222Z" fill="white"/>
<path d="M91.1111 57.2777C91.1111 54.7886 91.1111 53.5441 91.5955 52.5933C92.0216 51.7571 92.7015 51.0771 93.5378 50.651C94.4885 50.1666 95.7331 50.1666 98.2222 50.1666H141.778C144.267 50.1666 145.511 50.1666 146.462 50.651C147.298 51.0771 147.978 51.7571 148.404 52.5933C148.889 53.5441 148.889 54.7886 148.889 57.2777V107.944H91.1111V57.2777Z" fill="white"/>
<rect x="91.1111" y="124.611" width="57.7778" height="57.7778" fill="white"/>
<path d="M165.556 64.6111H194C196.489 64.6111 197.734 64.6111 198.685 65.0955C199.521 65.5216 200.201 66.2015 200.627 67.0378C201.111 67.9885 201.111 69.2331 201.111 71.7222V235.278C201.111 237.767 201.111 239.011 200.627 239.962C200.201 240.798 199.521 241.478 198.685 241.904C197.734 242.389 196.489 242.389 194 242.389H165.556V64.6111Z" fill="white"/>
<path d="M365.018 247.048C349.999 247.048 333.274 246.195 314.842 244.488V70.408C326.277 70.2373 335.493 70.152 342.49 70.152C349.487 69.9813 354.095 69.896 356.314 69.896C358.703 69.7253 358.618 69.64 356.058 69.64C376.538 69.64 392.325 71.0907 403.418 73.992C414.511 76.8933 422.362 81.8427 426.97 88.84C431.749 95.6667 434.138 105.395 434.138 118.024C434.138 125.704 433.455 131.933 432.09 136.712C430.725 141.32 428.335 144.904 424.922 147.464C421.679 150.024 417.071 151.987 411.098 153.352V154.888C419.119 156.253 425.263 158.472 429.53 161.544C433.967 164.616 437.039 168.883 438.746 174.344C440.623 179.805 441.562 187.229 441.562 196.616C441.562 209.928 439.258 220.168 434.65 227.336C430.042 234.504 422.277 239.624 411.354 242.696C400.602 245.597 385.157 247.048 365.018 247.048ZM369.37 218.888C379.781 218.888 387.717 218.205 393.178 216.84C398.81 215.304 402.821 212.829 405.21 209.416C407.599 205.832 408.794 200.797 408.794 194.312C408.794 187.656 407.77 182.536 405.722 178.952C403.845 175.368 400.602 172.893 395.994 171.528C391.557 169.992 385.071 169.224 376.538 169.224H347.098V218.376C355.119 218.717 362.543 218.888 369.37 218.888ZM382.938 141.064C387.887 140.893 391.727 140.211 394.458 139.016C397.189 137.651 399.066 135.517 400.09 132.616C401.285 129.715 401.882 125.619 401.882 120.328C401.882 115.037 401.114 110.941 399.578 108.04C398.213 105.139 395.738 103.005 392.154 101.64C388.57 100.104 383.45 98.9947 376.794 98.312C368.431 97.6293 358.533 97.3733 347.098 97.544V141.064H382.938ZM518.518 247.304C506.059 247.304 496.417 246.109 489.59 243.72C482.934 241.16 478.155 236.979 475.254 231.176C472.523 225.203 471.158 216.84 471.158 206.088C471.158 193.459 473.121 183.731 477.046 176.904C480.971 169.907 487.627 164.957 497.014 162.056C506.401 159.155 519.713 157.704 536.95 157.704H557.174V156.168C557.174 150.365 556.321 145.928 554.614 142.856C553.078 139.784 550.347 137.565 546.422 136.2C542.667 134.835 537.291 134.152 530.294 134.152C520.907 134.152 514.507 135.432 511.094 137.992C507.851 140.381 506.401 145.075 506.742 152.072H475.51C474.998 140.467 476.278 131.592 479.35 125.448C482.593 119.133 488.139 114.696 495.99 112.136C504.011 109.405 515.446 108.04 530.294 108.04C545.142 108.04 556.577 109.491 564.598 112.392C572.79 115.293 578.593 120.157 582.006 126.984C585.419 133.811 587.126 143.539 587.126 156.168V245H557.942V229.128H555.894C551.115 236.125 546.081 240.904 540.79 243.464C535.499 246.024 528.075 247.304 518.518 247.304ZM523.894 220.68C532.427 220.68 538.998 219.571 543.606 217.352C548.214 215.133 551.457 211.379 553.334 206.088C555.382 200.797 556.577 193.203 556.918 183.304L531.574 183.56C523.894 183.731 517.921 184.413 513.654 185.608C509.558 186.803 506.657 188.851 504.95 191.752C503.243 194.483 502.39 198.493 502.39 203.784C502.39 210.269 503.841 214.707 506.742 217.096C509.814 219.485 515.531 220.68 523.894 220.68ZM700.69 247.816C688.402 247.816 679.101 246.195 672.786 242.952C666.471 239.709 662.205 234.931 659.986 228.616C657.767 222.131 656.658 213.341 656.658 202.248V137.736H623.634L629.778 111.368H657.682V84.232L687.378 71.688V111.368H737.298V137.736H687.378V201.224C687.378 206.685 687.805 210.696 688.658 213.256C689.682 215.816 691.73 217.693 694.802 218.888C698.045 220.083 702.909 220.68 709.394 220.68C716.733 220.68 727.399 219.656 741.394 217.608V244.488C723.645 246.707 710.077 247.816 700.69 247.816ZM822.702 247.304C810.926 247.304 801.795 245.768 795.31 242.696C788.995 239.624 784.473 234.419 781.742 227.08C779.011 219.741 777.646 209.331 777.646 195.848V111.368H808.878V196.36C808.878 202.675 809.561 207.624 810.926 211.208C812.291 214.621 814.595 217.096 817.838 218.632C821.081 219.997 825.689 220.68 831.662 220.68C840.707 220.68 847.619 219.485 852.398 217.096C857.177 214.707 860.59 210.696 862.638 205.064C864.686 199.261 865.71 191.069 865.71 180.488V111.368H896.942V245H865.71V226.312H863.662C859.225 234.333 854.105 239.88 848.302 242.952C842.67 245.853 834.137 247.304 822.702 247.304ZM979.018 247.304C966.559 247.304 956.917 246.109 950.09 243.72C943.434 241.16 938.655 236.979 935.754 231.176C933.023 225.203 931.658 216.84 931.658 206.088C931.658 193.459 933.621 183.731 937.546 176.904C941.471 169.907 948.127 164.957 957.514 162.056C966.901 159.155 980.213 157.704 997.45 157.704H1017.67V156.168C1017.67 150.365 1016.82 145.928 1015.11 142.856C1013.58 139.784 1010.85 137.565 1006.92 136.2C1003.17 134.835 997.791 134.152 990.794 134.152C981.407 134.152 975.007 135.432 971.594 137.992C968.351 140.381 966.901 145.075 967.242 152.072H936.01C935.498 140.467 936.778 131.592 939.85 125.448C943.093 119.133 948.639 114.696 956.49 112.136C964.511 109.405 975.946 108.04 990.794 108.04C1005.64 108.04 1017.08 109.491 1025.1 112.392C1033.29 115.293 1039.09 120.157 1042.51 126.984C1045.92 133.811 1047.63 143.539 1047.63 156.168V245H1018.44V229.128H1016.39C1011.62 236.125 1006.58 240.904 1001.29 243.464C995.999 246.024 988.575 247.304 979.018 247.304ZM984.394 220.68C992.927 220.68 999.498 219.571 1004.11 217.352C1008.71 215.133 1011.96 211.379 1013.83 206.088C1015.88 200.797 1017.08 193.203 1017.42 183.304L992.074 183.56C984.394 183.731 978.421 184.413 974.154 185.608C970.058 186.803 967.157 188.851 965.45 191.752C963.743 194.483 962.89 198.493 962.89 203.784C962.89 210.269 964.341 214.707 967.242 217.096C970.314 219.485 976.031 220.68 984.394 220.68Z" fill="white"/>
</svg>